<svg width="106" height="106" viewBox="0 0 106 106" fill="none" xmlns="http://www.w3.org/2000/svg">
<path d="M85.3502 77.1496L87.3002 92.9495C87.8002 97.0994 83.3502 99.9994 79.8002 97.8494L58.8503 85.3995C56.5503 85.3995 54.3004 85.2495 52.1004 84.9495C55.8003 80.5995 58.0003 75.0996 58.0003 69.1496C58.0003 54.9497 45.7004 43.4498 30.5003 43.4498C24.7004 43.4498 19.3504 45.0998 14.9004 47.9997C14.7504 46.7497 14.7004 45.4997 14.7004 44.1998C14.7004 21.4498 34.4503 3 58.8503 3C83.2502 3 103 21.4498 103 44.1998C103 57.6997 96.0501 69.6496 85.3502 77.1496Z" stroke="#828282" stroke-width="5" stroke-linecap="round" stroke-linejoin="round"/>
<path d="M57.9997 69.1505C57.9997 75.1005 55.7997 80.601 52.0997 84.9509C47.1497 90.9509 39.2998 94.8004 30.4998 94.8004L17.4499 102.55C15.2499 103.9 12.4499 102.05 12.7499 99.5003L13.9999 89.6509C7.29997 85.0009 3 77.5505 3 69.1505C3 60.3506 7.69997 52.6011 14.8999 48.0011C19.3499 45.1012 24.6999 43.4512 30.4998 43.4512C45.6997 43.4512 57.9997 54.9506 57.9997 69.1505Z" stroke="#828282" stroke-width="5" stroke-linecap="round" stroke-linejoin="round"/>
</svg>
