<svg width="45" height="45" viewBox="0 0 45 45" fill="none" xmlns="http://www.w3.org/2000/svg">
<g id="&#240;&#159;&#166;&#134; icon &#34;messages 2&#34;">
<g id="Group">
<path id="Vector" d="M37.0577 33.3668L37.9351 40.4767C38.1601 42.3441 36.1577 43.6491 34.5602 42.6816L26.7754 38.0467C26.2354 37.7317 26.1004 37.0568 26.3929 36.5168C27.5178 34.4468 28.1253 32.1069 28.1253 29.7669C28.1253 21.5321 21.0605 14.8272 12.3756 14.8272C10.5981 14.8272 8.86568 15.0972 7.24571 15.6372C6.41322 15.9072 5.60324 15.1422 5.80574 14.2872C7.8532 6.09738 15.728 0 25.1329 0C36.1127 0 45 8.30233 45 18.5396C45 24.6145 41.8726 29.9919 37.0577 33.3668Z" fill="white"/>
<path id="Vector_2" d="M24.7495 29.7667C24.7495 32.4441 23.7595 34.9191 22.0946 36.8765C19.8671 39.5765 16.3347 41.3089 12.3748 41.3089L6.50237 44.7964C5.51239 45.4039 4.25241 44.5714 4.38741 43.4239L4.9499 38.9915C1.93496 36.899 0 33.5466 0 29.7667C0 25.8068 2.11496 22.3193 5.35489 20.2494C7.35735 18.9444 9.7648 18.2019 12.3748 18.2019C19.2146 18.2019 24.7495 23.3768 24.7495 29.7667Z" fill="white"/>
</g>
</g>
</svg>
