<svg width="32" height="46" viewBox="0 0 32 46" fill="none" xmlns="http://www.w3.org/2000/svg">
<path d="M15.9893 20.5088C15.7694 20.4868 15.5054 20.4868 15.2635 20.5088C10.0288 20.3328 5.87195 16.044 5.87195 10.7654C5.87195 5.37682 10.2268 1 15.6374 1C21.026 1 25.4028 5.37682 25.4028 10.7654C25.3808 16.044 21.2239 20.3328 15.9893 20.5088Z" stroke="#9B9B9B" stroke-width="2" stroke-linecap="round" stroke-linejoin="round"/>
<path d="M4.99193 28.6237C-0.330642 32.1867 -0.330642 37.9931 4.99193 41.5342C11.0403 45.5811 20.9597 45.5811 27.0081 41.5342C32.3306 37.9712 32.3306 32.1647 27.0081 28.6237C20.9817 24.5988 11.0623 24.5988 4.99193 28.6237Z" stroke="#9B9B9B" stroke-width="2" stroke-linecap="round" stroke-linejoin="round"/>
</svg>
