<svg width="43" height="56" viewBox="0 0 43 56" fill="none" xmlns="http://www.w3.org/2000/svg">
<g id="&#240;&#159;&#166;&#134; icon &#34;notification&#34;">
<g id="Group">
<path id="Vector" d="M42.0098 34.9118L39.2146 30.2718C38.6276 29.2376 38.0965 27.281 38.0965 26.135V19.0631C38.0965 12.4945 34.2392 6.82025 28.6768 4.16482C27.2233 1.59325 24.5399 0 21.4652 0C18.4185 0 15.6793 1.64916 14.2258 4.24868C8.77518 6.96001 5.00169 12.5783 5.00169 19.0631V26.135C5.00169 27.281 4.4706 29.2376 3.88362 30.2439L1.06048 34.9118C-0.0575926 36.7846 -0.309158 38.853 0.389637 40.7538C1.06048 42.6265 2.65373 44.08 4.72217 44.7788C10.1448 46.6237 15.847 47.5181 21.5491 47.5181C27.2512 47.5181 32.9534 46.6237 38.3761 44.8068C40.3327 44.1639 41.8421 42.6824 42.5688 40.7538C43.2956 38.8251 43.0999 36.7008 42.0098 34.9118Z" fill="white"/>
<path id="Vector_2" d="M29.4029 50.3409C28.2289 53.5834 25.1263 55.9034 21.4926 55.9034C19.2844 55.9034 17.1041 55.0089 15.5667 53.4156C14.6723 52.5771 14.0014 51.459 13.6101 50.313C13.9735 50.3689 14.3369 50.3968 14.7282 50.4527C15.3711 50.5366 16.0419 50.6205 16.7128 50.6764C18.306 50.8161 19.9272 50.9 21.5485 50.9C23.1417 50.9 24.735 50.8161 26.3003 50.6764C26.8873 50.6205 27.4742 50.5925 28.0333 50.5087C28.4805 50.4527 28.9277 50.3968 29.4029 50.3409Z" fill="white"/>
</g>
</g>
</svg>
