<svg width="44" height="42" viewBox="0 0 44 42" fill="none" xmlns="http://www.w3.org/2000/svg">
<path d="M1 41H42.0889" stroke="#9B9B9B" stroke-width="2" stroke-miterlimit="10" stroke-linecap="round" stroke-linejoin="round"/>
<path d="M2.95166 41L3.05438 16.285C3.05438 15.0318 3.65017 13.8403 4.63631 13.0596L19.0175 1.86287C20.4967 0.712378 22.5715 0.712378 24.0713 1.86287L38.4526 13.0391C39.4593 13.8197 40.0345 15.0112 40.0345 16.285V41" stroke="#9B9B9B" stroke-width="2" stroke-miterlimit="10" stroke-linejoin="round"/>
<path d="M23.599 30.728H19.4901C17.7849 30.728 16.4084 32.1045 16.4084 33.8097V41.0003H26.6807V33.8097C26.6807 32.1045 25.3042 30.728 23.599 30.728Z" stroke="#9B9B9B" stroke-width="2" stroke-miterlimit="10" stroke-linejoin="round"/>
<path d="M16.4084 24.0514H12.2995C11.1696 24.0514 10.2451 23.1269 10.2451 21.997V18.9153C10.2451 17.7853 11.1696 16.8608 12.2995 16.8608H16.4084C17.5383 16.8608 18.4628 17.7853 18.4628 18.9153V21.997C18.4628 23.1269 17.5383 24.0514 16.4084 24.0514Z" stroke="#9B9B9B" stroke-width="2" stroke-miterlimit="10" stroke-linejoin="round"/>
<path d="M30.7896 24.0514H26.6807C25.5507 24.0514 24.6262 23.1269 24.6262 21.997V18.9153C24.6262 17.7853 25.5507 16.8608 26.6807 16.8608H30.7896C31.9195 16.8608 32.844 17.7853 32.844 18.9153V21.997C32.844 23.1269 31.9195 24.0514 30.7896 24.0514Z" stroke="#9B9B9B" stroke-width="2" stroke-miterlimit="10" stroke-linejoin="round"/>
<path d="M35.9258 10.1834L35.8642 4.02002H26.8246" stroke="#9B9B9B" stroke-width="2" stroke-miterlimit="10" stroke-linecap="round" stroke-linejoin="round"/>
</svg>
