<svg width="50" height="50" viewBox="0 0 50 50" fill="none" xmlns="http://www.w3.org/2000/svg">
<path d="M31.6063 50.0013H17.8144C5.33284 50.0013 0 44.6685 0 32.1868V18.395C0 5.91341 5.33284 0.580566 17.8144 0.580566H22.4117C23.3542 0.580566 24.1357 1.3621 24.1357 2.30455C24.1357 3.24699 23.3542 4.02852 22.4117 4.02852H17.8144C7.21772 4.02852 3.44796 7.79829 3.44796 18.395V32.1868C3.44796 42.7836 7.21772 46.5533 17.8144 46.5533H31.6063C42.203 46.5533 45.9728 42.7836 45.9728 32.1868V27.5896C45.9728 26.6471 46.7543 25.8656 47.6968 25.8656C48.6392 25.8656 49.4207 26.6471 49.4207 27.5896V32.1868C49.4207 44.6685 44.0879 50.0013 31.6063 50.0013Z" fill="#9B9B9B"/>
<path d="M16.6636 38.3701C15.2615 38.3701 13.9742 37.8644 13.0318 36.945C11.9055 35.8186 11.4227 34.1866 11.6756 32.4626L12.664 25.5437C12.8479 24.2105 13.7214 22.4865 14.6638 21.5441L32.777 3.43072C37.3513 -1.14357 41.9945 -1.14357 46.5688 3.43072C49.0743 5.93624 50.2007 8.48772 49.9708 11.0392C49.7639 13.108 48.6606 15.1308 46.5688 17.1996L28.4555 35.3129C27.5131 36.2554 25.7891 37.1289 24.4559 37.3127L17.5371 38.3012C17.2383 38.3701 16.9395 38.3701 16.6636 38.3701ZM35.2135 5.86728L17.1004 23.9806C16.6636 24.4174 16.1579 25.4288 16.066 26.0264L15.0776 32.9453C14.9856 33.6119 15.1235 34.1636 15.4683 34.5084C15.8131 34.8532 16.3648 34.9911 17.0314 34.8992L23.9502 33.9108C24.5478 33.8188 25.5822 33.3131 25.996 32.8764L44.1093 14.763C45.6034 13.2689 46.3849 11.9357 46.4998 10.6944C46.6378 9.2003 45.8562 7.61424 44.1093 5.84429C40.4314 2.16647 37.9029 3.20086 35.2135 5.86728Z" fill="#9B9B9B"/>
<path d="M42.7537 20.3023C42.5928 20.3023 42.4319 20.2793 42.294 20.2334C36.2486 18.5324 31.4444 13.7282 29.7434 7.68278C29.4906 6.76333 30.0193 5.82089 30.9387 5.54505C31.8582 5.2922 32.8006 5.82089 33.0535 6.74034C34.4326 11.6364 38.3173 15.5211 43.2134 16.9003C44.1329 17.1532 44.6616 18.1186 44.4087 19.0381C44.2018 19.8196 43.5123 20.3023 42.7537 20.3023Z" fill="#9B9B9B"/>
</svg>
